<?xml version="1.0" encoding="utf-8"?>
<svg viewBox="0 0 500 500" xmlns="http://www.w3.org/2000/svg">
  <g id="root" stroke="none" stroke-width="1" fill="none" fill-rule="evenodd" style="" transform="matrix(1, 0, 0, 1.002397, 0.599, 0.599433)">
    <rect id="background" fill="" x="-0.599" y="-0.598" width="500" height="500"/>
    <g id="Group" transform="translate(40.000000, 349.000000)">
      <rect id="Rectangle-80" x="0" y="0" width="420" height="40"/>
    </g>
    <path d="M 422.83 422.534 C 403.278 422.534 387.379 406.651 387.379 387.128 C 387.379 367.61 403.278 351.724 422.83 351.724 C 442.38 351.724 458.291 367.61 458.291 387.128 C 458.291 406.651 442.381 422.534 422.828 422.534 Z M 247.559 422.534 C 158.288 422.534 85.653 350.026 85.653 260.898 C 85.653 232.832 92.928 206.453 105.587 183.427 L 200.139 183.427 C 174.038 199.413 156.575 228.154 156.575 260.898 C 156.575 310.979 197.391 351.724 247.559 351.724 L 389.355 351.724 C 379.919 360.621 373.994 373.186 373.994 387.128 C 373.994 401.077 379.919 413.641 389.355 422.534 L 247.559 422.534 Z M 78.967 422.534 C 59.418 422.534 43.506 406.651 43.506 387.128 C 43.506 367.61 59.418 351.724 78.967 351.724 L 97.791 351.724 C 117.036 383.238 145.984 408.216 180.453 422.534 L 78.967 422.534 Z M 36.819 134.663 C 36.819 115.149 52.728 99.277 72.278 99.277 C 91.822 99.277 107.731 115.15 107.731 134.663 C 107.731 154.183 91.822 170.068 72.278 170.068 C 52.728 170.068 36.819 154.183 36.819 134.663 Z M 325.157 260.898 C 325.157 303.618 290.352 338.369 247.559 338.369 C 204.767 338.369 169.961 303.618 169.961 260.898 C 169.961 218.178 204.768 183.427 247.559 183.427 C 290.353 183.427 325.157 218.178 325.157 260.898 Z M 229.438 99.277 L 240.868 99.277 L 247.559 99.277 L 254.253 99.445 C 340.43 102.965 409.458 174.023 409.458 260.898 C 409.458 287.875 402.568 314.58 389.504 338.369 L 295.01 338.369 C 321.107 322.385 338.546 293.644 338.546 260.898 C 338.546 210.81 297.728 170.068 247.559 170.068 L 240.869 170.068 L 229.438 170.068 L 105.755 170.068 C 115.19 161.172 121.114 148.612 121.114 134.663 C 121.114 120.724 115.19 108.168 105.755 99.277 L 229.438 99.277 Z M 416.148 99.277 C 435.697 99.277 451.612 115.15 451.612 134.663 C 451.612 154.183 435.7 170.068 416.148 170.068 L 397.315 170.068 C 378.069 138.561 349.127 113.589 314.666 99.277 L 416.148 99.277 Z M 471.672 387.128 C 471.672 360.247 449.757 338.369 422.834 338.369 L 404.585 338.369 C 416.554 314.272 422.834 287.713 422.834 260.898 C 422.834 233.09 416.272 206.796 404.66 183.427 L 416.148 183.427 C 443.075 183.427 464.99 161.549 464.99 134.663 C 464.99 107.786 443.075 85.921 416.148 85.921 L 247.56 85.921 L 240.868 85.921 L 72.278 85.921 C 45.346 85.921 23.439 107.786 23.439 134.663 C 23.439 161.548 45.346 183.427 72.278 183.427 L 90.493 183.427 C 78.872 206.802 72.278 233.08 72.278 260.898 C 72.278 288.705 78.832 314.997 90.447 338.369 L 78.967 338.369 C 52.036 338.369 30.128 360.247 30.128 387.128 C 30.128 414.02 52.036 435.888 78.967 435.888 L 247.559 435.888 L 254.25 435.888 L 422.834 435.888 C 449.757 435.885 471.672 414.02 471.672 387.128 Z" id="shape.primary" fill="#ffffff" style=""/>
    <circle style="fill: rgb(255, 0, 0);" transform="matrix(0.794691, 0, 0, 0.792794, 3.287241, -15.254991)" cx="308" cy="347.3999938964844" r="98.24052365638853"/>
    <circle style="fill: rgb(255, 255, 255);" transform="matrix(0.748951, 0, 0, 0.747161, -9.221204, -3.590991)" cx="342.3999938964844" cy="353" r="73.67824057865462"/>
    <circle style="fill: rgb(0, 0, 0);" transform="matrix(0.484657, 0, 0, 0.483498, 80.775246, 89.591713)" cx="342.3999938964844" cy="353" r="73.67824057865462"/>
  </g>
</svg>